<svg width="14" height="14" viewBox="0 0 14 14" fill="none" xmlns="http://www.w3.org/2000/svg">
<path fill-rule="evenodd" clip-rule="evenodd" d="M13.603 2.28545C14.1288 1.75963 14.1309 0.912055 13.6094 0.390587C13.0843 -0.134517 12.2396 -0.127988 11.7145 0.39705L7 5.1116L2.28545 0.39705C1.75963 -0.128773 0.912055 -0.130882 0.390587 0.390587C-0.134517 0.91569 -0.127988 1.76042 0.39705 2.28545L5.1116 7L0.39705 11.7145C-0.128773 12.2404 -0.130882 13.0879 0.390587 13.6094C0.91569 14.1345 1.76042 14.128 2.28545 13.603L7 8.8884L11.7145 13.603C12.2404 14.1288 13.0879 14.1309 13.6094 13.6094C14.1345 13.0843 14.128 12.2396 13.603 11.7145L8.8884 7L13.603 2.28545Z" fill="#ADBFC7"/>
</svg>
