<svg width="10" height="8" viewBox="0 0 10 8" fill="none" xmlns="http://www.w3.org/2000/svg">
<path fill-rule="evenodd" clip-rule="evenodd" d="M9.62419 0.456434L9.35643 0.242482C8.91197 -0.112751 8.24407 -0.0731544 7.85166 0.331556L3.37232 4.95088L2.02021 3.86781C1.57621 3.51218 0.908212 3.55098 0.515336 3.95525L0.278586 4.1989C0.0865928 4.39638 -0.0130945 4.65687 0.00138247 4.92295C0.0160022 5.18888 0.143563 5.43854 0.356211 5.61703L2.83469 7.72793C3.04928 7.91535 3.33686 8.01309 3.6308 7.99859C3.92475 7.98412 4.19956 7.85852 4.39158 7.651L9.73878 1.87248C9.9256 1.67059 10.0185 1.40797 9.99694 1.14244C9.97543 0.876714 9.84139 0.629993 9.62419 0.456434Z" fill="white"/>
</svg>
